<svg id="Capa_1" data-name="Capa 1" xmlns="http://www.w3.org/2000/svg" viewBox="0 0 200 200"><title>icono_web_2019Mesa de trabajo 32</title><path d="M185.16,96.4a24,24,0,0,1,0-34v0c1.28-1.33,1.75-3,1-3.67L141.49,14c-.72-.71-2.65-.55-4,.72l0,0a24,24,0,0,1-34,0,3.45,3.45,0,0,0-4.9,0L15,98.28a3.47,3.47,0,0,0,0,4.9l-.07.07a24,24,0,0,1,0,34l0,0a4.48,4.48,0,0,0-1.46,2.85,1.24,1.24,0,0,0,.33.92l45,45c.73.73,2.42.22,3.77-1.13h0a24,24,0,0,1,34,0l.08-.07a3.47,3.47,0,0,0,4.9,0l83.58-83.58a3.47,3.47,0,0,0,0-4.9ZM62.61,102.65l.37-.37a2.17,2.17,0,0,1,3.06,0L77.16,113.4a2.17,2.17,0,0,1,0,3.06l-.37.37a2.17,2.17,0,0,1-3.06,0L62.61,105.71A2.17,2.17,0,0,1,62.61,102.65ZM42.23,82.27l.37-.37a2.17,2.17,0,0,1,3.06,0L56.78,93a2.14,2.14,0,0,1,0,3l-.37.37a2.14,2.14,0,0,1-3,0L42.23,85.33A2.17,2.17,0,0,1,42.23,82.27Zm55.31,54.57-.37.37a2.17,2.17,0,0,1-3.06,0L83,126.08a2.14,2.14,0,0,1,0-3l.37-.37a2.14,2.14,0,0,1,3,0l11.13,11.12A2.17,2.17,0,0,1,97.54,136.84Zm20.37,20.37-.37.37a2.14,2.14,0,0,1-3.05,0l-11.13-11.12a2.17,2.17,0,0,1,0-3.06l.37-.37a2.17,2.17,0,0,1,3.06,0l11.12,11.13A2.14,2.14,0,0,1,117.91,157.21Z"/></svg>