<svg xmlns="http://www.w3.org/2000/svg" viewBox="0 0 225.22 119.08"><defs><style>.cls-1{fill:#fff;}</style></defs><g id="Capa_2" data-name="Capa 2"><g id="Capa_1-2" data-name="Capa 1"><path class="cls-1" d="M214.64,24.55s-10.48.5-22.67,25c-9.75,19.55-10.28,29.72-8.87,40.43.43,3.33,2.5,8.54,9.68,10.14,21.54,4.78,32.22-7.67,32.44-8C214.08,92.42,196,94,197.39,74.43c.4-14.68,7.18-37.43,17.25-49.88"/><path class="cls-1" d="M149.76,47.52c2.21.22,12.11.71,13.62.65a18.18,18.18,0,0,0,5.16-.73c2.17-.75,2.86-2.92,2.14-5.66a22.23,22.23,0,0,0-3.76-7.26,52.31,52.31,0,0,0-14.15-13.07,14.58,14.58,0,0,0-4.12-1.91C146.8,19,145.75,20,146,22s.62,3.84,1,5.74c1.23,6.86,2.3,16.56,2.42,17.49-.54-.22-7.1-6.52-11-17.29-2.37-5.29-6.33-20.88-6.35-21-.3-3.44,1.08-4.66,4.44-3.93C152.9,9,180,26.77,186.06,48.55a6.14,6.14,0,0,1-3.53,7.15,23.93,23.93,0,0,1-10.29,2.23c-21.79.4-38.45-10.83-38.77-11.23,0-.11,9.87.19,16.29.82"/><path class="cls-1" d="M141.15,61.77c-12,4.11-18.57-8.76-19.62-10.29A25.18,25.18,0,0,0,119.89,49c-1.41-1.59-3.26-1.47-5.1-1-3.32.78-14.77,6.27-17.66,6.71-4.15.63-7.08-1.61-6.95-6C91,20.23,100.65,1.19,104.4.06c4.23-1.27,11.11,17.37,13.16,21.85,1.58,3.46,3.23,6.91,4.81,10.37a5.78,5.78,0,0,0,5.74,3.66,17.28,17.28,0,0,1,8.75,1.65,12.81,12.81,0,0,1,5.9,6.31c-.25.17-5.59-3.3-11.25-.39-1.44.34-1.83,2-1.09,3.3C131.67,49.1,134.66,56.89,140,61c.38.26.78.49,1.18.74M100.76,38c.6,3.22,2,5.21,5.66,4.39,1.69-.37,8.44-1.68,7-6.44-.07-.35-4.92-12.3-6.87-14.94-.68-.92-1.31-.82-2.09,0-2.06,2.29-4.39,12.23-3.71,16.94"/><path class="cls-1" d="M154.92,97c-3.58-.14-7.26-.23-10.76-1.55a24.8,24.8,0,0,1-8.34-5.11c-3.33-3.16-5.52-7-5.55-11.63A14.12,14.12,0,0,1,134.72,68a23,23,0,0,1,11.49-5.91,32.69,32.69,0,0,1,12.66.12,29.28,29.28,0,0,1,11.72,4.66c4.39,3.07,7.81,6.92,8.87,12.33.75,3.74-.5,7.06-2.92,9.94a19.62,19.62,0,0,1-8.18,5.56A36,36,0,0,1,154.92,97M144.26,77.49a11,11,0,0,0,7.26,10.24,12,12,0,0,0,11.83-1.8c3.91-3.07,6.25-13,.56-14.81A5.92,5.92,0,0,0,158,72.88c-.47.47-.95,1.28-1.6.78-.37-.28-.31-1.24-.28-1.88a3.8,3.8,0,0,0-2.22-3.65c-1.71-.76-5.48.25-7.47,2.52a9.4,9.4,0,0,0-2.21,6.84"/><path class="cls-1" d="M123.89,69c-3.42-4.64-8.54-6.72-14.13-7.45a29.9,29.9,0,0,0-11.51.93A30.79,30.79,0,0,0,88,67.24a20.35,20.35,0,0,0-7.81,9.18c-1.72,4.36-2.2,7.27-1,10.44a13.6,13.6,0,0,0,2.08,3.8l-1.82.78c-16,6.74-22.36,7.22-27.13,8.17-4,.79-16.08,2.18-20.39-1.52-2.31-2-3-3.85-1.67-7.87,1.42-4.22,4.32-7.4,7.51-10.33A31.06,31.06,0,0,1,46,74.56c1.73-.79,6-2.77,7.86-1.22,1.62,1.36,1.39,3.56.08,5.35-.7,1-1.42,1.91-2.34,3.14.57.06,6.32-.37,12.26-6.29a26.09,26.09,0,0,0,7-11.15c1.39-4.71-.34-6.77-3.4-6.53-13.53,1.08-25,8.32-26.95,9.49-3.32,2-6.6,4.15-9.71,6.49-2.85,2.16-5.47,4.65-8.12,7.06-4.79,4.36-10.34,11.43-10.83,15.51s1.87,10.27,14.19,12.23a74.23,74.23,0,0,0,21.4.25,88.52,88.52,0,0,0,9.25-2.13c11.87-3.37,25.24-10.26,28.1-13.07a24.15,24.15,0,0,0,5.93,2.85c.94.3,1.9.52,2,.55a40.24,40.24,0,0,0,14.8.23,25.62,25.62,0,0,0,10.75-4,19.66,19.66,0,0,0,7.91-10.2A14.87,14.87,0,0,0,123.89,69M107.65,87.86a13.56,13.56,0,0,1-6,1.22,9.1,9.1,0,0,1-7.83-4.25,10.07,10.07,0,0,1-1.4-8.91,9.69,9.69,0,0,1,6.17-6.5,15.25,15.25,0,0,1,6.76-.7c2.38.24,3.21,1.69,2.79,4-.1.57-.92,2.45-.18,3.13A5.86,5.86,0,0,1,112.64,74a2.36,2.36,0,0,1,2.59,2.41c0,6.38-5.66,10.67-7.58,11.49"/><path class="cls-1" d="M66.37,25.48c-2.26-3.26-7.93-8.68-12,1.55-6.23,15.83-9.8,11.24-15.88,5.49-9.19-8.68-15.16-21.14-22.35-2.81-16.73,42.62-18,78-14.76,82.07.71.88,1.83.09,6.54-12,2.56-6.56,19.87-67.57,30.4-48.5,4.55,8.23,9.9,6,16.38-3.06,5.12-7.12,10-8.13,17.1.6a25.39,25.39,0,0,0,9.32,7.23c8.84,4.12,18,1.76,16.84,1.39-1.61-.53-8.38-1.93-11.15-4.1-8-6.31-14.24-18.89-20.49-27.88"/><path class="cls-1" d="M85.71,118.47v-9a.42.42,0,0,1,.4-.45h5.12a.42.42,0,0,1,.4.45v1a.42.42,0,0,1-.4.45H87.68v2.42H90.9a.4.4,0,0,1,.41.42v1a.41.41,0,0,1-.41.46H87.68v3.31c0,.27-.15.47-.39.47H86.11a.42.42,0,0,1-.4-.47"/><path class="cls-1" d="M100.1,118.47v-9a.42.42,0,0,1,.41-.45h5.37a.42.42,0,0,1,.41.45v1a.43.43,0,0,1-.41.45h-3.81V113h3.49a.4.4,0,0,1,.4.43v1a.41.41,0,0,1-.4.46h-3.49v2.23h4a.4.4,0,0,1,.41.44v1a.42.42,0,0,1-.41.47h-5.52a.42.42,0,0,1-.41-.47"/><path class="cls-1" d="M117.56,119.08a2.77,2.77,0,0,1-3-2.76v-.1c0-.24.12-.46.36-.46h1.22a.41.41,0,0,1,.41.44v.08c0,.65.55.94,1.18.94h.45c.64,0,1.16-.29,1.16-.93v-.21c0-1.22-4.52-1.15-4.52-4v-.24a2.8,2.8,0,0,1,2.93-2.92h.45a2.77,2.77,0,0,1,3,2.81v.18a.4.4,0,0,1-.41.43h-1.17a.4.4,0,0,1-.4-.43v-.18a.94.94,0,0,0-1-1h-.45a.91.91,0,0,0-.94,1v.08c0,1.49,4.53,1.39,4.53,4.12v.26a2.84,2.84,0,0,1-3,2.91Z"/><path class="cls-1" d="M131.4,118.47v-7.59h-2a.43.43,0,0,1-.42-.46v-1a.41.41,0,0,1,.4-.45h6.07a.43.43,0,0,1,.41.45v1a.43.43,0,0,1-.39.46h-2.08v7.59c0,.27-.15.47-.39.47H131.8a.42.42,0,0,1-.4-.47"/><path class="cls-1" d="M144.47,118.94a.42.42,0,0,1-.41-.47v-9a.41.41,0,0,1,.41-.45h1.17a.4.4,0,0,1,.4.45v9a.42.42,0,0,1-.4.47Z"/><path class="cls-1" d="M156.8,118.57l-2.55-9.14a.31.31,0,0,1,.28-.42h1.3a.55.55,0,0,1,.53.43l1.7,7.06,1.71-7.06a.51.51,0,0,1,.51-.43h1.3a.31.31,0,0,1,.29.42l-2.55,9.14a.5.5,0,0,1-.5.37h-1.55a.48.48,0,0,1-.47-.37"/><path class="cls-1" d="M168.83,118.52l2.8-9.14a.47.47,0,0,1,.47-.37h1.55a.48.48,0,0,1,.51.37l2.8,9.14a.33.33,0,0,1-.29.42h-1.32a.53.53,0,0,1-.51-.44l-.46-1.63h-3l-.45,1.63a.52.52,0,0,1-.51.44h-1.3a.3.3,0,0,1-.28-.42m4.06-7-1,3.5h2Z"/><path class="cls-1" d="M185.09,118.47v-9a.42.42,0,0,1,.4-.45h1.18a.41.41,0,0,1,.39.45v7.62h3.33a.4.4,0,0,1,.39.44v1a.43.43,0,0,1-.39.47h-4.9a.42.42,0,0,1-.4-.47"/></g></g></svg>