<svg xmlns="http://www.w3.org/2000/svg" viewBox="0 0 875.81 249.91"><defs><style>.cls-1{fill:#020202;}</style></defs><g id="Capa_2" data-name="Capa 2"><g id="Capa_1-2" data-name="Capa 1"><path id="SVGID" class="cls-1" d="M265.82,156.31c3.3,12.8-1.1,23.8-9.7,33.2-7.6,8.2-17.2,12.6-28.1,14.6-13,2.3-25.9,2.4-38.6-1.6a44.94,44.94,0,0,1-9.9-4.7c-.7-.4-1.3-.9-2.3-.2-9.4,7.2-20.2,12-30.9,16.8-15.2,6.7-31,11.9-47.4,14.5-11.7,1.9-23.5,1.6-35.2.5a85.21,85.21,0,0,1-20.6-3.9c-4.9-1.7-9.5-4-13.1-7.8-5.4-5.9-7-12.6-3.8-20,3.4-7.9,8.6-14.6,14.5-20.8,19.9-20.8,42.9-37.2,69.8-47.9a115.49,115.49,0,0,1,28.9-7.2c8.2-.9,11.5,2.3,10.1,10.4s-5.5,15.3-10.8,21.7c-6.9,8.2-15,14.7-25.7,17.4-.6.1-1.2.3-1.8.4-.8.1-1.5.2-2.9.4,1.9-2.5,3.4-4.6,4.9-6.6a9.71,9.71,0,0,0,2.2-6.9,6.2,6.2,0,0,0-5.7-5.6,12.69,12.69,0,0,0-4.8.6c-16.9,5.3-30.2,15.4-39.2,30.8a29.13,29.13,0,0,0-2.9,7.6c-1.9,7.4.8,13,7.9,16.1,6.8,2.9,13.9,3.2,21.1,2.9,27.1-1.2,52.5-9.2,77.1-19.9,1.3-.6,1.6-1,.7-2.3-4.9-7.1-5.6-14.7-3.1-22.9,3.3-11.3,10.1-19.7,20-25.8,17.3-10.8,35.8-14.6,55.6-8.2C254.12,135.81,262.62,143.81,265.82,156.31Zm-23.7,4.2a4.48,4.48,0,0,0-4.2-5,12.11,12.11,0,0,0-9.8,2.7c-.4.3-.7,1-1.3.7a1.39,1.39,0,0,1-.5-1.7c.3-1.8.8-3.5,1.1-5.2.8-4.2-1.4-7-5.5-7.6a32,32,0,0,0-13.4,1,20.94,20.94,0,0,0-14.9,23.2c1.2,8.1,7.8,18.7,20.8,18.4,6.1-.1,11.7-1.5,16.5-5.5C237.42,176.11,242,169.51,242.12,160.51Zm-193.2-35.6c3.6-7,7.4-13.9,12.9-19.7,7.4-7.7,13.4-6.9,18.8,2.3a17.39,17.39,0,0,0,1.1,1.8,27.58,27.58,0,0,0,4.5,5.7c3.9,3.7,8.5,4.4,13.3,2a26.17,26.17,0,0,0,5.5-3.9,57.64,57.64,0,0,0,8.4-9.4,63.2,63.2,0,0,1,7.4-9c2.5-2.4,5.3-4.4,8.8-5,4.9-.9,8.8,1.2,12.5,3.9,3.8,2.9,6.8,6.6,10,10.2,11.7,13.4,26.7,19.4,44.4,19,3.2-.1,6.5-.2,10.1-2-2.9-.8-5.1-1.5-7.4-2-11.5-2.3-20.4-8.5-27.5-17.6-3.8-4.8-7.4-9.6-10.8-14.7-7.3-10.8-13.7-22.1-21.1-32.8a29.56,29.56,0,0,0-6.4-6.8c-5.6-4.2-10.8-3.3-15,2.2a42.24,42.24,0,0,0-4.5,8.7,78.18,78.18,0,0,1-8,15.8c-5,7-9.8,7.7-16.5,2.2a182.81,182.81,0,0,1-16.2-15.5c-4.9-5.2-9.4-10.9-15.3-15-6.3-4.4-11.3-3.6-16.1,2.3a49.93,49.93,0,0,0-7,12.8c-17.3,43.8-29.6,88.8-34,135.8a167.78,167.78,0,0,0-.5,26.5,34.16,34.16,0,0,0,1.9,10.5c1,2.5,2.2,2.7,3.7.5a55.56,55.56,0,0,0,4.6-8.7c7-15.1,11.4-31.1,16.9-46.7C33.62,160.21,40.22,142.11,48.92,124.91ZM189.72,105c-.5-5.5.1-11.1.6-16.6,1.6-19.8,5.1-39.2,11.6-57.9,2.9-8.2,6.2-16.3,11-23.7a25.85,25.85,0,0,1,4.5-5.4c2.1-1.8,3.7-1.9,5.9-.2a21.33,21.33,0,0,1,5.1,5.7c5.5,8.3,9.5,17.3,13.3,26.4,4.8,11.7,10.2,23,15.5,34.5,2.6,5.6,6.7,7.8,12.9,7.7,11.9-.2,22.2,3.1,28.7,14.1.4.7.8,1.5,1.5,2.9-4-1.5-7.5-2.9-11.3-3.3a24.19,24.19,0,0,0-13.5,2.7,4.07,4.07,0,0,0-1.8,5.4c4.7,10.1,9.3,20.2,17.5,28.2a34.89,34.89,0,0,0,5.4,4.2c-7.3,2.4-14.2,2.3-20.9-.8-7.9-3.7-13.4-10-18-17.1-1.5-2.3-2.9-4.8-4.4-7.1-2.3-3.7-5.6-5.1-10-4.3-5.1.9-9.8,3.1-14.5,5.1-7,2.8-13.9,5.9-21,8.4a18.35,18.35,0,0,1-9,1A10.56,10.56,0,0,1,189.72,105Zm23.4-20.6c1.6,3.7,4.1,5.3,8.1,5a29.22,29.22,0,0,0,12.2-3.6c5.1-2.8,6.4-6.5,4.2-11.9-3-7.5-6.2-14.9-9.7-22.2a57.64,57.64,0,0,0-3.8-6.9c-1.4-2.3-2.9-2.3-4.6-.2a16.65,16.65,0,0,0-2.7,4.9,81.26,81.26,0,0,0-5.3,25.7A22.64,22.64,0,0,0,213.12,84.41Zm177.5,16a95.44,95.44,0,0,0-17.9-32.8c-22.7-27.8-51.6-47.3-84.7-60.8-2.9-1.2-6.1-1.8-8.7.4s-2.2,5.7-1.5,8.8c3.1,12.3,6.4,24.5,10.6,36.5,5,14.3,11.5,27.7,21.9,39a12.59,12.59,0,0,0,3.4,3.1c.4-.4.2-.8.2-1.2-1.7-15.6-4.1-31.2-6.9-46.6-.9-4.9,1.6-6.9,6.4-5.4,4.3,1.3,8,3.8,11.6,6.4,11.9,8.3,22.2,18.1,29.7,30.6,2.6,4.4,4.8,8.9,4.6,14.2a7.17,7.17,0,0,1-5.2,7,24.34,24.34,0,0,1-7.6,1.4,296.7,296.7,0,0,1-31.3-1.2c-11.3-.9-22.5-1.7-34-1.2a53.32,53.32,0,0,0,5.1,3.1c22.3,12.5,46.1,19.4,71.7,19.9,8.7.2,17.3-.6,25.3-4.5C390.22,113.91,392.92,107.91,390.62,100.41Zm79.2,93.1c-9.9.1-19.8.6-29.6-1.4-16.8-3.4-25.5-13.8-25.5-30.9,0-18,3.4-35.4,8.6-52.5,6.1-20.2,14.2-39.5,27.2-56.4.1-.1,0-.3-.1-.5a23.67,23.67,0,0,0-7.8,2.9c-8.4,4.7-14.9,11.5-20.7,19-11.8,15.2-20.2,32.3-27.6,49.9-8.3,19.9-12.7,40.4-10.2,62.1,1.6,13.8,8.4,21.8,22,24.7a88.3,88.3,0,0,0,21.1,2c14.7-.4,28-4.5,39.8-13.4a30.85,30.85,0,0,0,5.7-5.2A5.68,5.68,0,0,0,469.82,193.51Zm-98.3-40.8c10.3,14.7,7.5,30.4-7.2,40.6-7.9,5.4-16.8,8.1-26.1,9.5a100.49,100.49,0,0,1-10.5.8c-11.4-.2-20.9-.9-29.6-5.4-9.1-4.6-16.6-10.8-21.2-20-6.7-13.7-2.7-29.2,10-38.8,10.7-8.2,23-11.1,36.3-10.2,10.2.6,20.1,2.6,29.2,7.4C359.92,140.61,366.52,145.71,371.52,152.71Zm-20,6.6c-.4-7.2-5.4-11.2-12-10.2a13.92,13.92,0,0,0-7.9,4.6c-.6.7-1.2,1.6-2.3,1.2s-1.1-1.6-1.1-2.6v-1.4c0-5.7-4.1-9.2-9.6-8.2-9.6,1.7-15.3,8.8-15.3,19,0,14.3,11,24.8,25.5,24C344.82,185,352.12,172.41,351.52,159.31Zm-101.1,78.8c-1.1-.5-2.3-1-3.4-1.6s-1.9-1.2-1.5-2.6a2,2,0,0,1,2.1-1.5c1.3,0,2.5.2,2.7,1.7.3,2.5,2.2,1.6,3.4,1.4,1.6-.3.9-1.7.7-2.7-.7-2.8-2.9-4.3-6.4-4.3-3.7,0-5.7,1.3-6.6,4.3s0,5.5,2.9,7.1c1.6.9,3.4,1.5,5.1,2.4,1.5.8,1.7,2.3.6,3.2-1.5,1.2-4.5.6-5.1-1.3-.7-2.2-2.3-1.2-3.5-1.1s-.8,1.5-.6,2.3c.5,2.9,3.1,4.5,6.9,4.5s6.4-1.6,7-4.5C255.62,241.91,254.42,239.91,250.42,238.11Zm121,9.2c.2.8,1.1,2-.3,2.2-1.2.2-3.3,1-3.6-.9-.5-3.2-2.5-3.4-5.1-3.3-1.7.1-2.6.5-2.8,2.2-.2,1.2-.4,2.2-2.1,2.2-2.8,0-3,0-2.1-2.8,1.6-5.3,3.3-10.5,4.8-15.8.5-1.7,1.3-2.6,3.1-2.2,1.9-.4,2.7.5,3.2,2.3C368.12,236.61,369.92,241.91,371.42,247.31Zm-6.6-8.1c-.4-1.3-.8-2.6-1.1-3.9a.9.9,0,0,0-.5.1,8.8,8.8,0,0,0-.5,1.5c-.3,1.1-.6,2.2-1,3.3s.2,1.3,1.1,1.3C365.22,241.71,365.42,241.51,364.82,239.21Zm-142.9,6.6c-2,.1-4.1.1-6.1,0s-1.2-1.6-1.3-2.6-.4-2.1,1.3-2,3.4-.1,5.1,0,1.8-.8,1.8-2.1-.4-1.9-1.8-1.9c-1.6,0-3.1-.1-4.7,0-1.9.2-1.9-1-1.9-2.3s0-2.3,1.8-2.2,3.6,0,5.4,0c1.3,0,1.8-.6,1.8-1.8s-.1-2.2-1.7-2.1H212c-1.4,0-1.9.6-1.9,2,.1,2.8,0,5.6,0,8.4v8.6c0,1.3.4,1.8,1.8,1.8,3.3-.1,6.6-.1,9.8,0,1.4,0,1.9-.5,1.9-1.9C223.82,246.41,223.42,245.81,221.92,245.81Zm115-16.9c-1.3.3-1.2,1.3-1.5,2.1-1,4.2-2,8.4-3.2,13.2-.4-1.4-.6-2.1-.8-2.9l-2.7-11.1c-.5-2.2-2.4-1.4-3.7-1.3-1.7.1-.7,1.5-.5,2.2,1.5,5.6,3.2,11.1,4.6,16.6.5,1.9,1.6,1.9,3.1,1.9s2.6-.1,3-1.9c1.3-5.4,2.9-10.6,4.4-16C340.52,229,339.72,228.31,336.92,228.91Zm-146.1,0c-2.9.1-5.8.1-8.6,0-1.4,0-2,.5-1.9,1.9.1,2.9,0,5.8,0,8.6s.1,5.6,0,8.4c-.1,1.7.8,1.9,2.2,1.9s2-.3,2-1.8c-.1-1.9-.6-4.2.3-5.5,1.1-1.5,3.6-.5,5.5-.5,1.5-.1,1.8-.7,1.8-2s-.4-2-1.8-2-3,0-4.4,0c-2,0-1.4-1.5-1.4-2.5s-.7-2.5,1.4-2.5c1.7,0,3.4-.1,5.1,0s1.8-.7,1.8-2C192.62,229.51,192.22,228.81,190.82,228.91Zm92.7,0h-10c-2.2,0-2.7.7-2.3,2.8.4,1.9,1.9,1.1,2.8,1,1.9-.1,2.5.5,2.3,2.4s0,4,0,6.1V247c0,1.4-.3,2.7,2,2.7s2.2-1.3,2.1-2.9v-10.7c0-3.2,0-3.3,3.1-3.3,1.5,0,2-.5,2-2S284.92,228.81,283.52,228.91ZM399,245.81c-1.2.1-2.5-.1-3.7,0-1.6.2-2.1-.5-2.1-2.1.1-4.4,0-8.7.1-13.1,0-1.8-1-1.8-2.2-1.8-1.4,0-2,.4-2,1.9.1,2.8,0,5.6,0,8.4v8.6c0,1.4.4,2,1.9,1.9,2.7-.1,5.5-.1,8.2,0,1.4,0,1.9-.4,1.9-1.9S400.52,245.71,399,245.81Zm-92-6.3v-8.4c0-1.5-.4-2.3-2.1-2.3s-2.2.5-2.2,2.1q.15,8.4,0,16.8c0,1.5.6,2,2.1,2s2.3-.4,2.2-2.1Z"/><path id="SVGID-2" data-name="SVGID" class="cls-1" d="M697.59,162.14v16.27c0,4-3.09,6.76-7.1,6.76H597.83a6.6,6.6,0,0,1-6.88-6.76v-15a18.24,18.24,0,0,1,4.47-11.79c26.8-32.42,67.46-51.09,67.46-93.35,0-10.54-5.84-18.79-16.49-18.79H643.3c-10.77,0-16.95,8.94-16.95,19.7V64.1c0,4-3.1,6.76-7.11,6.76H600.69a6.78,6.78,0,0,1-7.1-6.76V58.49c0-29,20.73-48.91,49.59-48.91h3.1c29.43,0,49.36,21,49.36,50.28,0,40.66-29.89,67.24-58.76,95.53h53.38C694.5,155.39,697.59,158.14,697.59,162.14Zm11.57-92V31.91c0-13.51,10-22.45,23.36-22.45H735c13.52,0,23.48,8.94,23.48,22.45V70.17c0,13.52-10,22.34-23.36,22.34h-2.52C719.12,92.51,709.16,83.69,709.16,70.17Zm15.23-.8c0,5.15,3.09,9.28,8.25,9.28h2.52c5.15,0,8.13-4.13,8.13-9.28V32.83c0-5.15-3.09-9.28-8.25-9.28h-2.52c-5.15,0-8.13,4.13-8.13,9.28V69.37Zm-12,115.8H755.2a3.07,3.07,0,0,0,3.21-3.21V174.4a3.14,3.14,0,0,0-3.21-3.21H730.46c13.4-13.05,27.15-25.31,27.15-44.21,0-13.63-9.28-23.25-22.8-23.25h-1.37c-13.4,0-22.91,9.28-22.91,22.68V129a3.13,3.13,0,0,0,3.21,3.21h8.59a3.07,3.07,0,0,0,3.21-3.21v-2.29c0-5,2.86-9.16,7.79-9.16h1.37c4.92,0,7.67,3.78,7.67,8.7,0,19.59-18.78,28.18-31.15,43.19a8.56,8.56,0,0,0-2.06,5.49v7A3.06,3.06,0,0,0,712.36,185.17Zm156.46-29.78H815.45c28.86-28.18,58.76-54.75,58.76-95.53,0-29.43-20.05-50.28-49.37-50.28h-3.09c-28.86,0-49.6,19.93-49.6,48.91V64.1c0,4,3.1,6.76,7.11,6.76H797.7a6.79,6.79,0,0,0,7.1-6.76V59.17c0-10.76,6.07-19.7,17-19.7h3.09c10.54,0,16.49,8.25,16.49,18.79,0,42.38-40.66,60.93-67.46,93.35a18.24,18.24,0,0,0-4.47,11.79v15a6.53,6.53,0,0,0,6.88,6.76h92.43a6.78,6.78,0,0,0,7.1-6.76V162.14A6.68,6.68,0,0,0,868.82,155.39Z"/><path class="cls-1" d="M611.07,205.14a1.46,1.46,0,0,1,1.42,1.56v23.16c0,6.1-4.12,10.59-10.26,10.59h-1.09c-6,0-10.3-4.21-10.3-10.26v-1.41a1.43,1.43,0,0,1,1.37-1.57h4.11a1.47,1.47,0,0,1,1.42,1.57v1.41a3.34,3.34,0,0,0,3.4,3.55h1.09c2.36,0,3.36-2.13,3.36-4.49V206.7a1.42,1.42,0,0,1,1.37-1.56Z"/><path class="cls-1" d="M623.47,205.14a1.42,1.42,0,0,1,1.41,1.56v22.5a4.57,4.57,0,0,0,4.83,4.73h1a4.55,4.55,0,0,0,4.77-4.73V206.7a1.42,1.42,0,0,1,1.37-1.56H641a1.46,1.46,0,0,1,1.42,1.56v22c0,6.95-4.72,11.77-11.67,11.77h-1c-7,0-11.73-4.82-11.73-11.77v-22a1.43,1.43,0,0,1,1.42-1.56Z"/><path class="cls-1" d="M648.06,238.32V206.7a1.46,1.46,0,0,1,1.42-1.56h4.11A1.42,1.42,0,0,1,655,206.7v26.71h11.68A1.42,1.42,0,0,1,668,235v3.35a1.46,1.46,0,0,1-1.37,1.61H649.48A1.48,1.48,0,0,1,648.06,238.32Z"/><path class="cls-1" d="M689,240.45c-5.72,0-9.88-3.88-9.88-9.59V214.22c0-5.77,4.35-9.55,10.11-9.55h.62c5.48,0,9.88,3.31,9.88,8.84v.71a1.34,1.34,0,0,1-1.42,1.41h-3.74a1.34,1.34,0,0,1-1.42-1.41v-.57a3,3,0,0,0-3.3-3h-.62a3.37,3.37,0,0,0-3.54,3.55v4.63a8.79,8.79,0,0,1,3.92-1h.95c5.57,0,9.82,3.54,9.82,9.12v3.88c0,5.71-4.11,9.59-9.82,9.59Zm-3.31-12.72v2.79c0,2.18,1.37,3.93,3.54,3.93h1.09c2.17,0,3.5-1.75,3.5-3.93v-2.79a3.43,3.43,0,0,0-3.5-3.68H689.2A3.48,3.48,0,0,0,685.66,227.73Z"/><path class="cls-1" d="M704.63,239.93a.9.9,0,0,1-.62-.21.48.48,0,0,1-.09-.59l7.52-33.2a1.52,1.52,0,0,1,.28-.57.63.63,0,0,1,.52-.24h2a.88.88,0,0,1,.63.24.55.55,0,0,1,.17.61l-7.52,33.2c-.16.51-.42.76-.8.76Z"/><path class="cls-1" d="M722.5,239.93a1.36,1.36,0,0,1-1.42-1.37c0-10,3.88-19.24,9.6-27.41H718.77a1.35,1.35,0,0,1-1.42-1.37v-3.27a1.35,1.35,0,0,1,1.42-1.37h17.91a1.39,1.39,0,0,1,1.42,1.37l0,2.65c-5.63,9.17-10.36,18.67-10.36,29.4a1.35,1.35,0,0,1-1.41,1.37Z"/><path class="cls-1" d="M741,239.93a.89.89,0,0,1-.61-.21.48.48,0,0,1-.09-.59l7.51-33.2a1.7,1.7,0,0,1,.29-.57.62.62,0,0,1,.52-.24h2a.89.89,0,0,1,.64.24.59.59,0,0,1,.17.61l-7.52,33.2c-.16.51-.43.76-.81.76Z"/><path class="cls-1" d="M765,240.45c-5.81,0-10.16-3.83-10.16-9.64v-2.32a8.11,8.11,0,0,1,3.59-6.9,7.81,7.81,0,0,1-2.69-6.09v-1.94c0-5.35,3.88-9,9.26-9h1.09c5.34,0,9.22,3.63,9.22,9v1.94a7.79,7.79,0,0,1-2.7,6.09,8,8,0,0,1,3.6,6.9v2.32c0,5.81-4.31,9.64-10.12,9.64Zm-3.59-9.88a3.64,3.64,0,0,0,3.64,3.88h1a3.62,3.62,0,0,0,3.64-3.88v-2.12a3.53,3.53,0,0,0-3.64-3.74h-1a3.53,3.53,0,0,0-3.64,3.74Zm.9-14.7a2.65,2.65,0,0,0,2.74,2.84h1a2.68,2.68,0,0,0,2.74-2.84v-1.94c0-1.84-.9-3.35-2.74-3.35h-1c-1.79,0-2.74,1.51-2.74,3.35Z"/><path class="cls-1" d="M780.39,239.93a.91.91,0,0,1-.62-.21.5.5,0,0,1-.09-.59l7.52-33.2a1.69,1.69,0,0,1,.28-.57.63.63,0,0,1,.52-.24h2a.93.93,0,0,1,.64.24.57.57,0,0,1,.16.61l-7.52,33.2c-.16.51-.42.76-.8.76Z"/><path class="cls-1" d="M794.91,231.61v-.75a1.35,1.35,0,0,1,1.41-1.37h3.74a1.33,1.33,0,0,1,1.42,1.37v.56a3,3,0,0,0,3.35,3h.61a3.4,3.4,0,0,0,3.5-3.59v-4.59a8.79,8.79,0,0,1-3.92,1h-.95c-5.57,0-9.83-3.59-9.83-9.17v-3.87c0-5.68,4.17-9.55,9.83-9.55h1.57c5.72,0,9.87,3.83,9.87,9.55v16.64c0,5.76-4.3,9.59-10.07,9.59h-.61C799.3,240.45,794.91,237.09,794.91,231.61Zm14-14.23v-2.83a3.57,3.57,0,0,0-3.54-3.88h-1.09c-2.17,0-3.5,1.7-3.5,3.88v2.83c0,2.18,1.33,3.88,3.5,3.88h1.09A3.57,3.57,0,0,0,808.94,217.38Z"/><path class="cls-1" d="M820.3,239.93a.89.89,0,0,1-.61-.21.48.48,0,0,1-.09-.59l7.51-33.2a1.7,1.7,0,0,1,.29-.57.62.62,0,0,1,.52-.24h2a.89.89,0,0,1,.64.24.57.57,0,0,1,.17.61l-7.52,33.2c-.16.51-.43.76-.81.76Z"/><path class="cls-1" d="M836.85,239.93a1.29,1.29,0,0,1-1.37-1.37V235.3a1.29,1.29,0,0,1,1.37-1.37H840v-21l-2.83,2.17a1.25,1.25,0,0,1-1.94-.13l-2-2.89a1.24,1.24,0,0,1,.24-1.89l5.39-4.3a3.56,3.56,0,0,1,2.5-.76h3.78a1.35,1.35,0,0,1,1.42,1.37v27.42h3.26a1.33,1.33,0,0,1,1.42,1.37v3.26a1.33,1.33,0,0,1-1.42,1.37Z"/><path class="cls-1" d="M854.54,214.31c0-5.81,4.31-9.69,10.07-9.69h1.09c5.81,0,10.11,3.88,10.11,9.69v16.5c0,5.81-4.3,9.64-10.06,9.64h-1.09c-5.81,0-10.12-3.83-10.12-9.64Zm6.57.33v15.79c0,2.22,1.33,4,3.55,4h1.09c2.22,0,3.49-1.8,3.49-4V214.64c0-2.22-1.32-4-3.54-4h-1.09C862.39,210.63,861.11,212.42,861.11,214.64Z"/></g></g></svg>