
<!-- <style type="text/css">
	.st0{fill:#F8F4EA;}
</style>

 -->
 <svg version="1.1" id="Capa_1" xmlns="http://www.w3.org/2000/svg" xmlns:xlink="http://www.w3.org/1999/xlink" x="0px" y="0px"
	 viewBox="0 0 636.92 848.64" style="enable-background:new 0 0 636.92 848.64;" xml:space="preserve">
<path class="st0" d="M627.33,266.15c-20.1-126.51-124.5-231.89-251.02-253.01c-12.12-2.02-24.32-3.53-36.49-5.28
	c-13.68,0-27.36,0-41.05,0c-1.49,1.24-3.32,1.03-5.05,1.16c-18.74,1.4-37.15,4.7-55.34,9.38C69.95,61.8-29.54,236.06,19.55,402.83
	c12.89,43.77,33.79,84.31,56.3,123.8c65.55,115.03,148.99,216.38,239.87,311.98c3.26,3.43,4.82,2.03,7.2-0.53
	c15.59-16.84,31.65-33.26,46.84-50.46c90.55-102.52,173.74-209.95,230.54-335.88C627.23,392,637.61,330.87,627.33,266.15z
	 M152.13,464.92c-1.1,1.87-2,4.72-4.71,4.3c-2.54-0.39-2.87-3.22-3.55-5.34c-2.13-6.66-2.63-13.6-2.85-20.49
	c-0.52-17.11,0.44-34.17,2.27-51.21c7.7-71.55,26.25-140.41,51.37-207.63c4.03-10.79,7.9-21.67,14.11-31.51
	c2.12-3.36,4.5-6.44,7.37-9.16c5.54-5.27,12.09-6.34,19.07-3.13c5.15,2.37,9.37,6.01,13.43,9.85c8.3,7.85,15.48,16.77,23.54,24.84
	c7.83,7.85,15.36,16.06,24.43,22.53c9.6,6.85,17.48,5.36,24.49-4.08c6.77-9.12,11.19-19.43,15.41-29.84
	c1.91-4.69,3.9-9.33,6.94-13.42c7.9-10.62,18.27-11.42,28.09-2.45c8,7.31,13.24,16.64,18.99,25.57
	c12.13,18.81,23.34,38.22,36.85,56.12c7.94,10.53,16.35,20.65,27.01,28.6c6.55,4.88,14.31,7.16,21.97,9.53
	c5.29,1.64,10.67,2.98,16.02,4.41c0.62,0.17,1.21,0.28,1.74,1.08c-3.32,1.85-6.87,2.24-10.28,2.55
	c-27.86,2.51-52.68-4.68-73.95-23.31c-7.61-6.66-13.12-15.23-20.59-22c-3.62-3.28-7.43-6.28-11.79-8.51
	c-9.72-4.97-19.9-3.06-28.43,4.91c-6.34,5.92-11.08,13.1-16.37,19.86c-4.81,6.14-10.1,11.86-16.36,16.54
	c-12.04,8.99-23.65,7.02-32.63-5.26c-3.23-4.42-5.41-9.5-8.91-13.75c-7.89-9.59-16.07-8.62-24.35-1.51
	c-10.08,8.65-16.67,19.94-22.82,31.45c-15.39,28.81-26.55,59.4-37.52,90.07c-8.35,23.36-14.95,47.32-24.25,70.34
	C161.74,445.09,157.73,455.38,152.13,464.92z M495.86,429.68c-4.47,9.44-11.96,15.98-20.63,21.34
	c-29.26,18.09-60.81,30.91-93.67,40.7c-15.53,4.62-31.25,8.56-47.35,10.54c-17.41,2.15-34.91,2.46-52.44,1.35
	c-17.24-1.1-34.4-2.63-51.05-7.55c-10.57-3.13-20.6-7.49-28.7-15.25c-13.86-13.27-16.55-28.6-8.14-45.9
	c5.7-11.72,13.3-22.21,21.9-31.89c34.37-38.72,75.31-68.92,121.37-92.24c21.87-11.07,44.94-18.89,69.08-23.29
	c6.39-1.16,12.88-2.01,19.36-2.47c9.02-0.63,15.68,4.1,15.87,14.32c0.16,8.57-2.35,16.51-5.82,24.13
	c-11.53,25.35-29.44,44.74-54.55,57.11c-6.58,3.24-13.56,5.48-20.97,6.02c-0.48,0.03-0.97-0.05-1.96-0.11
	c3.31-4.45,6.4-8.54,9.42-12.69c2.92-4,5.08-8.35,4.72-13.44c-0.62-8.79-7.56-13.65-16.74-11.69
	c-15.79,3.38-29.96,10.54-43.07,19.68c-15.78,11.01-29.28,24.38-39.09,41.13c-4.15,7.08-6.92,14.73-8.35,22.8
	c-1.81,10.19,3.18,19.71,13.12,25.71c6.79,4.09,14.34,5.76,22.02,6.8c11.33,1.54,22.74,1.39,34.12,0.6
	c10.52-0.73,20.93-2.35,31.32-4.19c20.32-3.61,40.38-8.2,59.99-14.75c20.15-6.73,39.82-14.65,59.38-22.89
	c2.85-1.2,5.76-2.26,8.94-2.27c2.53-0.01,3.55,1.2,3.42,3.67C497.24,426.7,496.56,428.19,495.86,429.68z"/>
</svg>
